<svg width="342" height="138" viewBox="0 0 342 138" fill="none" xmlns="http://www.w3.org/2000/svg">
<path d="M129.965 5.5625V34H124.613V5.5625H129.965ZM138.793 5.5625V9.80078H115.883V5.5625H138.793ZM147.035 4V34H141.859V4H147.035ZM146.215 22.6719H144.691C144.691 21.2005 144.887 19.8464 145.277 18.6094C145.668 17.3724 146.221 16.2982 146.938 15.3867C147.654 14.4622 148.507 13.7461 149.496 13.2383C150.499 12.7305 151.605 12.4766 152.816 12.4766C153.858 12.4766 154.802 12.6263 155.648 12.9258C156.508 13.2122 157.243 13.6745 157.855 14.3125C158.467 14.9505 158.936 15.7839 159.262 16.8125C159.6 17.8281 159.77 19.0651 159.77 20.5234V34H154.574V20.4844C154.574 19.5078 154.431 18.7396 154.145 18.1797C153.858 17.6068 153.448 17.1966 152.914 16.9492C152.393 16.7018 151.749 16.5781 150.98 16.5781C150.147 16.5781 149.431 16.7409 148.832 17.0664C148.233 17.3789 147.738 17.8151 147.348 18.375C146.97 18.9349 146.684 19.5794 146.488 20.3086C146.306 21.0378 146.215 21.8255 146.215 22.6719ZM175.961 29.5078V19.7617C175.961 19.0456 175.837 18.4271 175.59 17.9062C175.342 17.3854 174.965 16.9818 174.457 16.6953C173.949 16.4089 173.305 16.2656 172.523 16.2656C171.833 16.2656 171.228 16.3828 170.707 16.6172C170.199 16.8516 169.809 17.1836 169.535 17.6133C169.262 18.0299 169.125 18.5117 169.125 19.0586H163.949C163.949 18.1862 164.158 17.3594 164.574 16.5781C164.991 15.7839 165.583 15.0807 166.352 14.4688C167.133 13.8438 168.064 13.3555 169.145 13.0039C170.238 12.6523 171.462 12.4766 172.816 12.4766C174.418 12.4766 175.844 12.75 177.094 13.2969C178.357 13.8307 179.346 14.638 180.062 15.7188C180.792 16.7995 181.156 18.1602 181.156 19.8008V29.0195C181.156 30.0742 181.221 30.9792 181.352 31.7344C181.495 32.4766 181.703 33.1211 181.977 33.668V34H176.723C176.475 33.4661 176.286 32.7891 176.156 31.9688C176.026 31.1354 175.961 30.3151 175.961 29.5078ZM176.684 21.1289L176.723 24.1953H173.461C172.654 24.1953 171.944 24.2799 171.332 24.4492C170.72 24.6055 170.219 24.8398 169.828 25.1523C169.438 25.4518 169.145 25.8164 168.949 26.2461C168.754 26.6628 168.656 27.138 168.656 27.6719C168.656 28.1927 168.773 28.6615 169.008 29.0781C169.255 29.4948 169.607 29.8268 170.062 30.0742C170.531 30.3086 171.078 30.4258 171.703 30.4258C172.615 30.4258 173.409 30.2435 174.086 29.8789C174.763 29.5013 175.29 29.0456 175.668 28.5117C176.046 27.9779 176.247 27.4701 176.273 26.9883L177.758 29.2148C177.576 29.7487 177.302 30.3151 176.938 30.9141C176.573 31.513 176.104 32.0729 175.531 32.5938C174.958 33.1146 174.268 33.5443 173.461 33.8828C172.654 34.2214 171.716 34.3906 170.648 34.3906C169.281 34.3906 168.057 34.1172 166.977 33.5703C165.896 33.0234 165.043 32.2747 164.418 31.3242C163.793 30.3737 163.48 29.293 163.48 28.082C163.48 26.9622 163.689 25.9727 164.105 25.1133C164.522 24.2539 165.141 23.5312 165.961 22.9453C166.781 22.3464 167.797 21.8971 169.008 21.5977C170.232 21.2852 171.632 21.1289 173.207 21.1289H176.684ZM190.863 17.3789V34H185.707V12.8672H190.551L190.863 17.3789ZM190.043 22.6719H188.52C188.533 21.1354 188.741 19.7422 189.145 18.4922C189.548 17.2422 190.115 16.168 190.844 15.2695C191.586 14.3711 192.465 13.681 193.48 13.1992C194.496 12.7174 195.629 12.4766 196.879 12.4766C197.895 12.4766 198.812 12.6198 199.633 12.9062C200.453 13.1927 201.156 13.6484 201.742 14.2734C202.341 14.8984 202.797 15.7188 203.109 16.7344C203.435 17.737 203.598 18.974 203.598 20.4453V34H198.402V20.4062C198.402 19.4427 198.259 18.681 197.973 18.1211C197.699 17.5612 197.296 17.1641 196.762 16.9297C196.241 16.6953 195.596 16.5781 194.828 16.5781C194.034 16.5781 193.337 16.7409 192.738 17.0664C192.152 17.3789 191.658 17.8151 191.254 18.375C190.863 18.9349 190.564 19.5794 190.355 20.3086C190.147 21.0378 190.043 21.8255 190.043 22.6719ZM213.305 3.98047V34H208.148V3.98047H213.305ZM226.547 12.8672L217.348 23.1992L212.367 28.2578L210.727 24.2539L214.574 19.4102L220.316 12.8672H226.547ZM221.273 34L214.73 24.1562L218.168 20.8164L227.25 34H221.273Z" fill="black"/>
<path fill-rule="evenodd" clip-rule="evenodd" d="M136.643 80.1967C135.208 78.7902 133.263 78 131.235 78H126.265H123.588H108.294H106.765H100.647C98.6189 78 96.6739 78.7902 95.2398 80.1967C93.8057 81.6032 93 83.5109 93 85.5L93 130.5C93 132.489 93.8057 134.397 95.2398 135.803C96.6739 137.21 98.6189 138 100.647 138H108.294C108.294 136.011 109.1 134.103 110.534 132.697C111.968 131.29 113.913 130.5 115.941 130.5C117.969 130.5 119.914 131.29 121.348 132.697C122.783 134.103 123.588 136.011 123.588 138H131.235C133.263 138 135.208 137.21 136.643 135.803C138.077 134.397 138.882 132.489 138.882 130.5L138.882 85.5C138.882 83.5109 138.077 81.6032 136.643 80.1967Z" fill="#00AACF"/>
<path fill-rule="evenodd" clip-rule="evenodd" d="M136.643 80.0277C135.208 78.7294 133.263 78 131.235 78H126.265H123.588H108.294H106.765H100.647C98.6189 78 96.6739 78.7294 95.2398 80.0277C93.8057 81.326 93 83.087 93 84.9231L93 126.462C93 128.298 93.8057 130.059 95.2398 131.357C96.6739 132.655 98.6189 133.385 100.647 133.385H108.294C108.294 131.548 109.1 129.788 110.534 128.489C111.968 127.191 113.913 126.462 115.941 126.462C117.969 126.462 119.914 127.191 121.348 128.489C122.783 129.788 123.588 131.548 123.588 133.385H131.235C133.263 133.385 135.208 132.655 136.643 131.357C138.077 130.059 138.882 128.298 138.882 126.462L138.882 84.9231C138.882 83.087 138.077 81.326 136.643 80.0277Z" fill="#4CD0ED"/>
<path d="M111.968 97.1682L115.929 105.313L119.89 97.1682H123.148L117.406 107.949V114.231H114.441V107.949L108.699 97.1682H111.968Z" fill="white"/>
<path fill-rule="evenodd" clip-rule="evenodd" d="M191.702 80.1967C190.267 78.7902 188.322 78 186.294 78H181.324H178.647H163.353H161.824H155.706C153.678 78 151.733 78.7902 150.299 80.1967C148.865 81.6032 148.059 83.5109 148.059 85.5L148.059 130.5C148.059 132.489 148.865 134.397 150.299 135.803C151.733 137.21 153.678 138 155.706 138H163.353C163.353 136.011 164.159 134.103 165.593 132.697C167.027 131.29 168.972 130.5 171 130.5C173.028 130.5 174.973 131.29 176.407 132.697C177.842 134.103 178.647 136.011 178.647 138H186.294C188.322 138 190.267 137.21 191.702 135.803C193.136 134.397 193.941 132.489 193.941 130.5L193.941 85.5C193.941 83.5109 193.136 81.6032 191.702 80.1967Z" fill="#D5A30E"/>
<path fill-rule="evenodd" clip-rule="evenodd" d="M191.702 80.0277C190.267 78.7294 188.322 78 186.294 78H181.324H178.647H163.353H161.824H155.706C153.678 78 151.733 78.7294 150.299 80.0277C148.865 81.326 148.059 83.087 148.059 84.9231L148.059 126.462C148.059 128.298 148.865 130.059 150.299 131.357C151.733 132.655 153.678 133.385 155.706 133.385H163.353C163.353 131.548 164.159 129.788 165.593 128.489C167.027 127.191 168.972 126.462 171 126.462C173.028 126.462 174.973 127.191 176.407 128.489C177.842 129.788 178.647 131.548 178.647 133.385H186.294C188.322 133.385 190.267 132.655 191.702 131.357C193.136 130.059 193.941 128.298 193.941 126.462L193.941 84.9231C193.941 83.087 193.136 81.326 191.702 80.0277Z" fill="#F2C94C"/>
<path d="M178.067 105.231V106.168C178.067 107.457 177.899 108.614 177.563 109.637C177.227 110.66 176.746 111.531 176.121 112.25C175.504 112.969 174.762 113.52 173.895 113.903C173.028 114.278 172.067 114.465 171.012 114.465C169.965 114.465 169.008 114.278 168.141 113.903C167.282 113.52 166.536 112.969 165.903 112.25C165.27 111.531 164.778 110.66 164.426 109.637C164.082 108.614 163.911 107.457 163.911 106.168V105.231C163.911 103.942 164.082 102.789 164.426 101.774C164.77 100.75 165.254 99.8792 165.879 99.1604C166.512 98.4338 167.258 97.8831 168.118 97.5081C168.985 97.1252 169.942 96.9338 170.989 96.9338C172.043 96.9338 173.004 97.1252 173.871 97.5081C174.739 97.8831 175.485 98.4338 176.11 99.1604C176.735 99.8792 177.215 100.75 177.551 101.774C177.895 102.789 178.067 103.942 178.067 105.231ZM175.125 106.168V105.207C175.125 104.254 175.032 103.414 174.844 102.688C174.664 101.953 174.395 101.34 174.036 100.848C173.684 100.348 173.25 99.9729 172.735 99.7229C172.219 99.4651 171.637 99.3362 170.989 99.3362C170.34 99.3362 169.762 99.4651 169.254 99.7229C168.746 99.9729 168.313 100.348 167.954 100.848C167.602 101.34 167.332 101.953 167.145 102.688C166.957 103.414 166.864 104.254 166.864 105.207V106.168C166.864 107.121 166.957 107.965 167.145 108.699C167.332 109.434 167.606 110.055 167.965 110.563C168.332 111.063 168.77 111.442 169.278 111.699C169.786 111.949 170.364 112.074 171.012 112.074C171.668 112.074 172.25 111.949 172.758 111.699C173.266 111.442 173.696 111.063 174.047 110.563C174.399 110.055 174.664 109.434 174.844 108.699C175.032 107.965 175.125 107.121 175.125 106.168Z" fill="white"/>
<path fill-rule="evenodd" clip-rule="evenodd" d="M246.76 80.1967C245.326 78.7902 243.381 78 241.353 78H236.382H233.706H218.412H216.882H210.765C208.736 78 206.791 78.7902 205.357 80.1967C203.923 81.6032 203.118 83.5109 203.118 85.5L203.118 130.5C203.118 132.489 203.923 134.397 205.357 135.803C206.791 137.21 208.736 138 210.765 138H218.412C218.412 136.011 219.217 134.103 220.651 132.697C222.086 131.29 224.031 130.5 226.059 130.5C228.087 130.5 230.032 131.29 231.466 132.697C232.9 134.103 233.706 136.011 233.706 138H241.353C243.381 138 245.326 137.21 246.76 135.803C248.194 134.397 249 132.489 249 130.5L249 85.5C249 83.5109 248.194 81.6032 246.76 80.1967Z" fill="#A20C00"/>
<path fill-rule="evenodd" clip-rule="evenodd" d="M246.76 80.0277C245.326 78.7294 243.381 78 241.353 78H236.382H233.706H218.412H216.882H210.765C208.736 78 206.791 78.7294 205.357 80.0277C203.923 81.326 203.118 83.087 203.118 84.9231L203.118 126.462C203.118 128.298 203.923 130.059 205.357 131.357C206.791 132.655 208.736 133.385 210.765 133.385H218.412C218.412 131.548 219.217 129.788 220.651 128.489C222.086 127.191 224.031 126.462 226.059 126.462C228.087 126.462 230.032 127.191 231.466 128.489C232.9 129.788 233.706 131.548 233.706 133.385H241.353C243.381 133.385 245.326 132.655 246.76 131.357C248.194 130.059 249 128.298 249 126.462L249 84.9231C249 83.087 248.194 81.326 246.76 80.0277Z" fill="#EA4335"/>
<path d="M229.515 97.1682H232.445V108.571C232.445 109.867 232.164 110.953 231.601 111.828C231.039 112.703 230.273 113.364 229.304 113.809C228.344 114.246 227.269 114.465 226.082 114.465C224.855 114.465 223.762 114.246 222.801 113.809C221.84 113.364 221.082 112.703 220.527 111.828C219.98 110.953 219.707 109.867 219.707 108.571V97.1682H222.637V108.571C222.637 109.391 222.777 110.067 223.058 110.598C223.34 111.121 223.738 111.508 224.254 111.758C224.769 112.008 225.379 112.133 226.082 112.133C226.785 112.133 227.39 112.008 227.898 111.758C228.414 111.508 228.812 111.121 229.094 110.598C229.375 110.067 229.515 109.391 229.515 108.571V97.1682Z" fill="white"/>
<rect x="65" y="58" width="212" height="4" rx="2" fill="#2F80ED"/>
</svg>
